#!OML:ASF F:\VICON\USERDATA\INSTALL\rory3\rory3.ASF
:FULLY-SPECIFIED
:DEGREES
761
root 3.26176 33.2369 -3.32356 -169.25 -10.5704 176.818
lowerback 6.3594 -0.2463 -2.6217
upperback 1.27022 -0.533745 1.43929
thorax -2.21843 -0.275758 3.00316
lowerneck -15.9674 3.42744 -11.2333
upperneck 42.4543 2.7103 3.44062
head 18.406 -1.84874 3.65862
rclavicle 3.97569e-016 1.11319e-014
rhumerus -0.109006 34.7901 -86.6752
rradius 84.0907
rwrist 60.8796
rhand -16.4798 -4.08074
rfingers 7.12502
rthumb 9.73729 -33.8356
lclavicle 3.97569e-016 1.11319e-014
lhumerus -11.9253 -14.3983 90.1243
lradius 82.6124
lwrist -34.591
lhand -52.1247 29.4108
lfingers 7.12502
lthumb -24.627 57.8464
rfemur -29.094 -2.09167 23.8998
rtibia 37.7114
rfoot -17.0313 -4.06512
rtoes 21.7476
lfemur -25.7909 0.720338 -21.0053
ltibia 30.6353
lfoot -16.6598 -3.90947
ltoes -26.5481
762
root 3.26327 33.2404 -3.32997 -169.539 -10.4774 176.944
lowerback 6.55835 -0.11406 -2.37538
upperback 1.47402 -0.357428 1.42689
thorax -2.13356 -0.198466 2.8378
lowerneck -15.9776 3.35793 -11.1737
upperneck 42.4041 2.60063 3.46167
head 18.3921 -1.86492 3.64088
rclavicle 1.63003e-014 -4.77083e-015
rhumerus -0.0272572 34.6663 -86.4928
rradius 84.2481
rwrist 61.0591
rhand -16.8935 -4.22214
rfingers 7.12502
rthumb 9.33812 -33.9953
lclavicle 1.63003e-014 -4.77083e-015
lhumerus -12.6363 -14.636 90.2362
lradius 82.7502
lwrist -34.1972
lhand -51.8481 28.7657
lfingers 7.12502
lthumb -24.3619 57.2372
rfemur -28.8172 -1.96993 23.9547
rtibia 37.7836
rfoot -17.0305 -3.8541
rtoes 22.3551
lfemur -25.5363 1.02708 -20.8057
ltibia 31.1212
lfoot -18.096 -4.74165
ltoes -28.8152
763
root 3.27206 33.2292 -3.31837 -169.469 -10.611 176.708
lowerback 6.64226 -0.0505674 -2.52019
upperback 1.56752 -0.289744 1.37731
thorax -2.08797 -0.1678 2.86285
lowerneck -15.8613 3.30119 -11.0137
upperneck 42.2704 2.51392 3.36947
head 18.2964 -1.86205 3.55094
rclavicle -3.85642e-014 4.77083e-015
rhumerus 0.127499 34.4694 -86.2656
rradius 84.2643
rwrist 61.2525
rhand -17.7576 -4.25011
rfingers 7.12502
rthumb 8.50422 -34.0589
lclavicle -3.85642e-014 4.77083e-015
lhumerus -13.3056 -14.9005 90.4106
lradius 82.656
lwrist -34.0701
lhand -51.2696 26.6378
lfingers 7.12502
lthumb -23.8072 55.1827
rfemur -28.9261 -2.08714 23.7188
rtibia 37.852
rfoot -16.9763 -3.72506
rtoes 21.62
lfemur -25.7199 1.09283 -20.9599
ltibia 31.7506
lfoot -18.9298 -5.03218
ltoes -30.5208
764
root 3.28384 33.2201 -3.29923 -169.351 -10.833 176.66
lowerback 6.7007 0.0192001 -2.41488
upperback 1.62211 -0.194751 1.32126
thorax -2.07134 -0.123013 2.73771
lowerneck -15.843 3.18751 -11.0809
upperneck 42.2445 2.28392 3.588
head 18.2933 -1.9216 3.6284
rclavicle 2.46493e-014 1.51076e-014
rhumerus 0.264133 34.1275 -86.102
rradius 84.2817
rwrist 61.4549
rhand -18.8098 -4.5582
rfingers 7.12502
rthumb 7.48871 -34.4056
lclavicle 2.46493e-014 1.51076e-014
lhumerus -13.9208 -15.2328 90.5575
lradius 82.4058
lwrist -34.0934
lhand -50.9438 24.078
lfingers 7.12502
lthumb -23.4947 52.6633
rfemur -29.1603 -2.22882 23.7229
rtibia 37.9225
rfoot -16.8917 -3.81875
rtoes 20.5105
lfemur -26.0181 1.07777 -20.8815
ltibia 32.4709
lfoot -19.4831 -4.92063
ltoes -31.9297
765
root 3.29478 33.2173 -3.28346 -169.334 -11.0901 176.751
lowerback 6.78096 0.0769384 -2.17616
upperback 1.68263 -0.107407 1.31404
thorax -2.05991 -0.0831627 2.58854
lowerneck -15.5607 3.09519 -11.0122
upperneck 42.1075 2.04428 3.67786
head 18.1595 -1.97494 3.6088
rclavicle 8.34896e-015 -3.49861e-014
rhumerus 0.446533 33.8065 -85.8571
rradius 84.3902
rwrist 61.5993
rhand -19.371 -4.71136
rfingers 7.12502
rthumb 6.94707 -34.5774
lclavicle 8.34896e-015 -3.49861e-014
lhumerus -14.5457 -15.8429 90.7048
lradius 82.0847
lwrist -33.9282
lhand -50.897 23.6722
lfingers 7.12502
lthumb -23.4498 52.2633
rfemur -29.2951 -2.36645 23.8534
rtibia 37.9987
rfoot -16.8751 -3.83392
rtoes 20.4034
lfemur -26.2528 1.05742 -20.6589
ltibia 33.261
lfoot -20.0067 -4.85913
ltoes -32.2911
